<?xml version="1.0" encoding="utf-8"?>
<!-- Generator: Adobe Illustrator 25.0.0, SVG Export Plug-In . SVG Version: 6.00 Build 0)  -->
<svg version="1.1" xmlns="http://www.w3.org/2000/svg" xmlns:xlink="http://www.w3.org/1999/xlink" x="0px" y="0px"
	 viewBox="0 0 1500 355.7" style="enable-background:new 0 0 1500 355.7;" xml:space="preserve">
<style type="text/css">
	.st0{fill-rule:evenodd;clip-rule:evenodd;fill:none;}
	.st1{fill:#828282;stroke:#828282;stroke-width:0.25;stroke-miterlimit:10;}
	.st2{font-family:'Arial';font-weight:700;}
	.st3{font-size:55px;}
	.st4{letter-spacing:8px;}
	.st5{fill-rule:evenodd;clip-rule:evenodd;fill:#AA0A2F;}
	.st6{fill-rule:evenodd;clip-rule:evenodd;}
	.st7{fill-rule:evenodd;clip-rule:evenodd;fill:#FFFFFF;}
</style>
<g id="Background">
</g>
<g id="Logo_Warna">
	<rect x="484.09" y="275.39" class="st0" width="943.39" height="50.63"/>
	<text transform="matrix(1 0 0 1 484.0923 314.4376)" class="st1 st2 st3 st4">INDONESIAN NEWS AGENCY</text>
	<path class="st5" d="M75.97,172.97l178.19-83.92c28.07,61.17,21.13,117.68-14.82,170.32L76.09,182.25
		C64.91,176.97,64.72,178.27,75.97,172.97 M23.09,150.2L338.17,1.19l-0.03,49.03l-43.65,19.85c28.86,97.89-16.37,162.43-83.64,217.6
		l36.6-24.81l90.67,42.94l0.02,48.73L23.03,203.32C-1.03,192-1,161.48,23.09,150.2z"/>
	<path class="st6" d="M1242.93,112.24v0.03l-86.67,0.02l-0.01,130.04l-23.48,0.01l0-152.62l121.02-0.03
		c51.36,5.72,51.15,86.52,3.54,93.07l-28.78-0.04c9.95,26.53,30.64,49.3,80.33,60.49c-39.61,3.23-102.13-6.68-111.99-82.16l42.56,0
		C1277,163.45,1276.79,112.92,1242.93,112.24 M801.4,91.11l160.71,0.01v22.57l-68.61,0l0,130.03l-23.5,0.01l0.01-130.03l-68.63,0
		L801.4,91.11z M615.36,90.98l0.03,152.65l23.46,0.09l0-125.61l109.2,125.6l28.95-0.06l0.01-152.72l-22.54,0.02l-0.07,125.57
		L645.08,90.96L615.36,90.98z M1417.1,96.91l77.9,146.8l-25.63-0.02l-64.17-122.15c-2.77-5.24-2.1-5.15-4.85,0.06
		c-21.6,40.75-42.96,81.38-64.58,122.08l-25.47,0.01l79.04-146.81C1395.24,85.67,1411.2,85.69,1417.1,96.91z M1037.59,96.91
		l77.9,146.8l-25.64-0.02l-64.17-122.15c-2.77-5.24-2.1-5.15-4.85,0.06c-21.6,40.75-42.96,81.38-64.58,122.08l-25.47,0.01
		l79.04-146.81C1015.74,85.67,1031.7,85.69,1037.59,96.91z M515.2,96.91l77.9,146.8l-25.64-0.02L503.3,121.55
		c-2.77-5.24-2.1-5.15-4.85,0.06c-21.6,40.75-42.96,81.38-64.58,122.08l-25.47,0.01l79.04-146.81
		C493.35,85.67,509.31,85.69,515.2,96.91z"/>
</g>
<g id="Logo_Putih">
</g>
</svg>
